<svg width="90" height="115" viewBox="0 0 90 115" fill="none" xmlns="http://www.w3.org/2000/svg">
<path d="M50.846 49.7421C47.6837 53.1272 42.3163 53.1272 39.154 49.7421L18.6039 27.7439C13.8276 22.631 17.4531 14.2827 24.4499 14.2827L65.5501 14.2827C72.5469 14.2827 76.1724 22.631 71.3961 27.7439L50.846 49.7421Z" fill="white"/>
<path d="M39.154 65.2579C42.3163 61.8728 47.6837 61.8728 50.846 65.2579L71.3961 87.2561C76.1724 92.369 72.5469 100.717 65.5501 100.717H24.4499C17.4531 100.717 13.8276 92.369 18.6039 87.2561L39.154 65.2579Z" fill="white"/>
<path d="M47.1807 47.6918C45.9969 48.9448 44.0031 48.9448 42.8193 47.6918L34.1922 38.5602C32.3848 36.6472 33.7411 33.5 36.3729 33.5H53.6271C56.2589 33.5 57.6152 36.6472 55.8078 38.5602L47.1807 47.6918Z" fill="black"/>
<path d="M43.9057 84.4287C44.6092 84.1531 45.3908 84.1531 46.0943 84.4287L66.5857 92.4567C69.6724 93.666 68.8065 98.25 65.4914 98.25H24.5086C21.1935 98.25 20.3275 93.666 23.4143 92.4567L43.9057 84.4287Z" fill="black"/>
</svg>
