<svg width="131" height="131" viewBox="0 0 131 131" fill="none" xmlns="http://www.w3.org/2000/svg">
<rect width="131" height="131" rx="30" fill="black"/>
<path d="M71.846 58.7421C68.6837 62.1272 63.3163 62.1272 60.154 58.7421L39.6039 36.7439C34.8276 31.631 38.4531 23.2827 45.4499 23.2827L86.5501 23.2827C93.5469 23.2827 97.1724 31.631 92.3961 36.7439L71.846 58.7421Z" fill="white"/>
<path d="M60.154 74.2579C63.3163 70.8728 68.6837 70.8728 71.846 74.2579L92.3961 96.2561C97.1724 101.369 93.5469 109.717 86.5501 109.717H45.4499C38.4531 109.717 34.8276 101.369 39.6039 96.2561L60.154 74.2579Z" fill="white"/>
<path d="M68.1807 56.6918C66.9969 57.9448 65.0031 57.9448 63.8193 56.6918L55.1922 47.5602C53.3848 45.6472 54.7411 42.5 57.3729 42.5H74.6271C77.2589 42.5 78.6152 45.6472 76.8078 47.5602L68.1807 56.6918Z" fill="black"/>
<path d="M64.9057 93.4287C65.6092 93.1531 66.3908 93.1531 67.0943 93.4287L87.5857 101.457C90.6724 102.666 89.8065 107.25 86.4914 107.25H45.5086C42.1935 107.25 41.3275 102.666 44.4143 101.457L64.9057 93.4287Z" fill="black"/>
</svg>
